<svg id="Layer_31" data-name="Layer 31" xmlns="http://www.w3.org/2000/svg" width="54.057" height="27.852" viewBox="0 0 54.057 27.852">
  <path id="Path_4393" data-name="Path 4393" d="M52.441,41.463h-.514l-10.2-10.21A.872.872,0,0,0,41.107,31H20.182a.872.872,0,0,0-.619.253l-10.2,10.21h-4A4.359,4.359,0,0,0,1,45.822V52.8a.872.872,0,0,0,.872.872H9.789a6.1,6.1,0,0,0,12.067,0H37.689a6.1,6.1,0,0,0,12.067,0h4.429a.872.872,0,0,0,.872-.872V44.078A2.616,2.616,0,0,0,52.441,41.463Zm-35.39-5.231H28.029v5.231H11.82ZM2.744,50.182H4.488v1.744H2.744Zm13.078,6.975A4.359,4.359,0,1,1,20.182,52.8a4.359,4.359,0,0,1-4.359,4.359Zm27.9,0A4.359,4.359,0,1,1,48.082,52.8,4.359,4.359,0,0,1,43.723,57.157Zm9.591-5.231H49.756a6.1,6.1,0,0,0-12.067,0H21.856a6.1,6.1,0,0,0-12.067,0H6.231V49.31a.872.872,0,0,0-.872-.872H2.744V45.822a2.616,2.616,0,0,1,2.616-2.616H28.9a.872.872,0,0,0,.872-.872V35.359a.872.872,0,0,0-.872-.872H18.8l1.744-1.744h20.21l10.2,10.21a.872.872,0,0,0,.619.253h.872a.872.872,0,0,1,.872.872Z" transform="translate(-1 -31)" fill="#ec736e"/>
  <path id="Path_4394" data-name="Path 4394" d="M17.616,50.694a2.616,2.616,0,1,0,2.616,2.616,2.616,2.616,0,0,0-2.616-2.616Zm0,3.488a.872.872,0,1,1,.872-.872A.872.872,0,0,1,17.616,54.182Zm27.9-3.488a2.616,2.616,0,1,0,2.616,2.616,2.616,2.616,0,0,0-2.616-2.616Zm0,3.488a.872.872,0,1,1,.872-.872A.872.872,0,0,1,45.516,54.182Zm-3.74-18.929A.872.872,0,0,0,41.157,35H34.182a.872.872,0,0,0-.872.872v6.975a.872.872,0,0,0,.872.872h13.95a.877.877,0,0,0,.619-1.491Zm-6.722,6.722V36.744H40.8l5.231,5.231Zm-6.975,3.488h3.488v1.744H28.078Z" transform="translate(-2.794 -31.512)" fill="#ec736e"/>
</svg>
