<svg id="out_line" data-name="out line" xmlns="http://www.w3.org/2000/svg" width="47.639" height="46.05" viewBox="0 0 47.639 46.05">
  <path id="Path_4377" data-name="Path 4377" d="M219.97,95.94A3.97,3.97,0,1,0,216,91.97,3.97,3.97,0,0,0,219.97,95.94Zm0-6.352a2.382,2.382,0,1,1-2.382,2.382A2.382,2.382,0,0,1,219.97,89.588Z" transform="translate(-196.151 -81.648)" fill="#4843d4"/>
  <path id="Path_4378" data-name="Path 4378" d="M62.845,62.907h-.794V44.645a.794.794,0,0,0,.517-1.4L40.336,24.194a.794.794,0,0,0-1.044.009L17.855,43.258a.794.794,0,0,0,.527,1.387V62.907H16.794A.794.794,0,0,0,16,63.7v5.558a.794.794,0,0,0,.794.794H62.845a.794.794,0,0,0,.794-.794V63.7A.794.794,0,0,0,62.845,62.907ZM39.829,25.85,59.9,43.057H20.466Zm20.633,18.8V62.907H57.287V44.645Zm-4.764,0V62.907H24.734V44.645Zm-35.729,0h3.176V62.907H19.97ZM62.051,68.465H17.588v-3.97H62.051Z" transform="translate(-16 -24.002)" fill="#4843d4"/>
  <path id="Path_4379" data-name="Path 4379" d="M183.94,263.88a7.94,7.94,0,1,0-7.94-7.94A7.94,7.94,0,0,0,183.94,263.88Zm0-14.292a6.352,6.352,0,1,1-6.352,6.352A6.352,6.352,0,0,1,183.94,249.588Z" transform="translate(-160.12 -225.769)" fill="#4843d4"/>
  <path id="Path_4380" data-name="Path 4380" d="M233.317,282.29a2.4,2.4,0,0,0,.369.147v.695a.695.695,0,1,0,1.389,0v-.695a2.4,2.4,0,0,0,.369-.147,2.368,2.368,0,0,0,1.319-2.131,3.085,3.085,0,0,0-1.715-2.774l-.957-.478a1.259,1.259,0,0,1-.7-1.135.992.992,0,1,1,1.985,0v.4a.695.695,0,0,0,1.389,0v-.4a2.382,2.382,0,0,0-1.687-2.277v-.8a.695.695,0,0,0-1.389,0v.8A2.382,2.382,0,0,0,232,275.771a2.643,2.643,0,0,0,1.469,2.382l.958.478a1.7,1.7,0,0,1,.948,1.527.992.992,0,1,1-1.979,0,.695.695,0,1,0-1.389,0v.193a.7.7,0,0,0,.035.219A2.367,2.367,0,0,0,233.317,282.29Z" transform="translate(-210.562 -247.387)" fill="#4843d4"/>
</svg>
