<svg xmlns="http://www.w3.org/2000/svg" width="34.616" height="45.083" viewBox="0 0 34.616 45.083">
  <g id="chemical-flask" transform="translate(-8.966 -2)">
    <path id="Path_4406" data-name="Path 4406" d="M42.97,39.363,33.036,20.6V9.514a3.757,3.757,0,1,0,0-7.514H19.511a3.757,3.757,0,1,0,0,7.514V20.6L9.577,39.363a5.26,5.26,0,0,0,4.649,7.721h24.1a5.26,5.26,0,0,0,4.649-7.721ZM17.257,5.757A2.254,2.254,0,0,1,19.511,3.5H33.036a2.254,2.254,0,0,1,0,4.508H19.511a2.254,2.254,0,0,1-2.254-2.254Zm3.67,15.379a.757.757,0,0,0,.087-.352V9.514H31.533V20.785a.757.757,0,0,0,.087.352l6.428,12.142a14.113,14.113,0,0,1-2.96-.451,15.936,15.936,0,0,0-4.307-.516,15.929,15.929,0,0,0-4.308.516,14.441,14.441,0,0,1-3.957.476,14.422,14.422,0,0,1-3.956-.476,15.473,15.473,0,0,0-3.558-.5ZM41.54,43.761a3.727,3.727,0,0,1-3.219,1.82h-24.1a3.757,3.757,0,0,1-3.32-5.515l3.313-6.258c.012,0,.021.007.033.007a14.42,14.42,0,0,1,3.955.476,15.914,15.914,0,0,0,4.31.516,15.93,15.93,0,0,0,4.308-.516,14.441,14.441,0,0,1,3.957-.476,14.443,14.443,0,0,1,3.959.476,15.886,15.886,0,0,0,4.117.513l2.786,5.26a3.728,3.728,0,0,1-.1,3.7Z" transform="translate(0 0)" fill="#6a5ecb"/>
    <path id="Path_4407" data-name="Path 4407" d="M31.26,31.531a2.254,2.254,0,1,0,2.254-2.254A2.254,2.254,0,0,0,31.26,31.531Zm3.006,0a.751.751,0,1,1-.751-.751A.751.751,0,0,1,34.265,31.531Zm-6.011-3.006A2.254,2.254,0,1,0,26,26.271,2.254,2.254,0,0,0,28.254,28.525Zm0-3.006a.751.751,0,1,1-.751.751A.751.751,0,0,1,28.254,25.519Zm3.006-5.26h.751v.751a.751.751,0,0,0,1.5,0V20.26h.751a.751.751,0,0,0,0-1.5h-.751v-.751a.751.751,0,0,0-1.5,0v.751H31.26a.751.751,0,0,0,0,1.5ZM27.5,16.5a.744.744,0,0,0,.751-.751.751.751,0,1,0-1.5,0,.744.744,0,0,0,.751.751Zm-.533,16.749a.785.785,0,0,0-.218.533.751.751,0,1,0,.218-.533Z" transform="translate(-4.235 -3.232)" fill="#6a5ecb"/>
  </g>
</svg>
