<svg id="education" xmlns="http://www.w3.org/2000/svg" width="47.639" height="37.359" viewBox="0 0 47.639 37.359">
  <path id="Path_4375" data-name="Path 4375" d="M51.009,16.8l-22.961-6.8a.85.85,0,0,0-.485,0L4.6,16.8a.85.85,0,0,0-.051,1.616L15.9,22.648V32.1a2.551,2.551,0,1,0,0,5.1h.136a11.906,11.906,0,0,0,23.539,0h.136a2.551,2.551,0,0,0,0-5.1V22.648l3.4-1.259v2.364a2.551,2.551,0,0,0-.978,4.167l-.629,1.25a.852.852,0,1,0,1.522.765l.629-1.233a1.531,1.531,0,0,0,.612,0l.638,1.267a.852.852,0,0,0,1.522-.765l-.629-1.25a2.551,2.551,0,0,0-.986-4.2V20.76l6.25-2.313a.85.85,0,0,0-.051-1.616ZM15.9,35.506a.85.85,0,1,1,0-1.7Zm22.111,0a10.2,10.2,0,1,1-20.41,0v-.918a18.973,18.973,0,0,0,20.41,0Zm0-2.976a17.28,17.28,0,0,1-20.41,0v-.493a18.973,18.973,0,0,0,20.41,0Zm0-2.551a17.28,17.28,0,0,1-20.41,0v-6.7l9.907,3.674a.85.85,0,0,0,.6,0l9.907-3.674Zm2.551,4.677a.85.85,0,0,1-.85.85v-1.7A.85.85,0,0,1,40.566,34.656ZM43.968,27a.85.85,0,1,1,.85-.85A.85.85,0,0,1,43.968,27Zm-.145-7.654L27.946,16.8a.861.861,0,1,0-.264,1.7l12.884,2.024L27.81,25.242l-20.274-7.5L27.81,11.695l20.274,6Z" transform="translate(-3.991 -9.959)" fill="#e171f7"/>
  <path id="Path_4376" data-name="Path 4376" d="M29.7,45.7v-.85a.85.85,0,1,0-1.7,0v.85a3.4,3.4,0,1,0,6.8,0v-.85a.85.85,0,1,0-1.7,0v.85a1.7,1.7,0,1,1-3.4,0Z" transform="translate(-7.582 -15.051)" fill="#e171f7"/>
</svg>
