<svg xmlns="http://www.w3.org/2000/svg" width="44.463" height="44.463" viewBox="0 0 44.463 44.463">
  <path id="_41_Setting_Construction_Engine_Engineering" data-name="41 Setting, Construction, Engine, Engineering" d="M31.408,28.042l-1.81-1.81,1.588-1.588a4.764,4.764,0,0,0,4.573-1.223,5.248,5.248,0,0,0,1.3-5.336.793.793,0,0,0-1.3-.278l-1.12,1.127a.8.8,0,1,1-1.127-1.127l1.143-1.1a.795.795,0,0,0-.278-1.3,5.232,5.232,0,0,0-5.883,1.945,4.812,4.812,0,0,0-.691,3.97L26.215,22.9l-1.588-1.588A4.764,4.764,0,0,0,23.421,16.7a5.248,5.248,0,0,0-5.336-1.3.795.795,0,0,0-.278,1.3l1.127,1.12a.8.8,0,1,1-1.127,1.127l-1.1-1.143a.793.793,0,0,0-1.3.278,5.224,5.224,0,0,0,1.953,5.883,4.764,4.764,0,0,0,3.97.683l1.588,1.588-1.81,1.8a4.764,4.764,0,0,0-5.669,6.352.793.793,0,0,0,1.3.278l.889-.9A.8.8,0,1,1,18.752,34.9l-.945.857a.795.795,0,0,0,.278,1.3,4.883,4.883,0,0,0,1.731.326,4.764,4.764,0,0,0,4.605-5.995l1.81-1.794,1.8,1.81A4.764,4.764,0,0,0,32.647,37.4a4.883,4.883,0,0,0,1.731-.326.795.795,0,0,0,.278-1.3l-.9-.889a.8.8,0,1,1,1.127-1.127l.873.9a.793.793,0,0,0,1.3-.278,4.764,4.764,0,0,0-5.669-6.352ZM22.063,23.19a.794.794,0,0,0-.85-.183,3.176,3.176,0,0,1-2.922-.333A3.851,3.851,0,0,1,16.7,20.086a2.438,2.438,0,0,0,3.335,0A2.382,2.382,0,0,0,20.1,16.7a4.049,4.049,0,0,1,2.2,1.072,3.176,3.176,0,0,1,.707,3.406.794.794,0,0,0,.175.85l1.929,1.921L23.984,25.08Zm.889,7.44a.794.794,0,0,0-.175.85,3.176,3.176,0,0,1-.707,3.406,3.232,3.232,0,0,1-2.064.921,2.388,2.388,0,0,0-3.351-3.359,3.176,3.176,0,0,1,4.327-2.771.794.794,0,0,0,.85-.183l7.44-7.44a.794.794,0,0,0,.183-.85,3.176,3.176,0,0,1,.333-2.914A3.835,3.835,0,0,1,32.377,16.7a2.382,2.382,0,0,0,0,3.335,2.438,2.438,0,0,0,3.319.048,4.049,4.049,0,0,1-1.072,2.2,3.176,3.176,0,0,1-3.406.707.794.794,0,0,0-.85.175Zm9.687,2.009a2.382,2.382,0,0,0-.183,3.176,3.163,3.163,0,0,1-2.771-4.327.794.794,0,0,0-.183-.85l-2.152-2.152,1.127-1.127,2.152,2.16a.794.794,0,0,0,.85.175,3.176,3.176,0,0,1,3.406.707,3.232,3.232,0,0,1,.921,2.064,2.445,2.445,0,0,0-3.168.175ZM46.081,21.467H42.77a.794.794,0,0,1-.738-.524,17.411,17.411,0,0,0-.889-2.144.794.794,0,0,1,.175-.9L43.7,15.521a2.334,2.334,0,0,0,.7-1.683,2.382,2.382,0,0,0-.7-1.683L40.332,8.788a2.382,2.382,0,0,0-3.366,0L34.56,11.146a.794.794,0,0,1-.9.151,17.412,17.412,0,0,0-2.144-.889A.794.794,0,0,1,31,9.669V6.382A2.382,2.382,0,0,0,28.613,4H23.849a2.382,2.382,0,0,0-2.382,2.382V9.693a.794.794,0,0,1-.524.738,17.412,17.412,0,0,0-2.144.889.794.794,0,0,1-.9-.175L15.521,8.8a2.382,2.382,0,0,0-3.366,0L8.788,12.17a2.382,2.382,0,0,0-.7,1.683,2.334,2.334,0,0,0,.7,1.683l2.342,2.382a.794.794,0,0,1,.151.9,17.412,17.412,0,0,0-.889,2.144.794.794,0,0,1-.738.524H6.382A2.382,2.382,0,0,0,4,23.865v4.764a2.382,2.382,0,0,0,2.382,2.382H9.693a.794.794,0,0,1,.738.524,17.412,17.412,0,0,0,.889,2.144.794.794,0,0,1-.175.881L8.8,36.9a2.334,2.334,0,0,0-.7,1.683,2.382,2.382,0,0,0,.7,1.683l3.366,3.366a2.382,2.382,0,0,0,3.366,0l2.382-2.382a.794.794,0,0,1,.9-.151,17.411,17.411,0,0,0,2.144.889.794.794,0,0,1,.524.738v3.351a2.382,2.382,0,0,0,2.382,2.382h4.764a2.382,2.382,0,0,0,2.382-2.382V42.77a.794.794,0,0,1,.524-.738,17.412,17.412,0,0,0,2.144-.889.794.794,0,0,1,.9.151l2.342,2.382a2.382,2.382,0,0,0,3.366,0l3.366-3.366a2.382,2.382,0,0,0,.7-1.683,2.334,2.334,0,0,0-.7-1.683L41.269,34.6a.794.794,0,0,1-.151-.9,17.412,17.412,0,0,0,.889-2.144.794.794,0,0,1,.738-.524h3.335a2.382,2.382,0,0,0,2.382-2.382v-4.8A2.382,2.382,0,0,0,46.081,21.467Zm.794,7.146a.794.794,0,0,1-.794.794H42.77A2.382,2.382,0,0,0,40.523,31a15.41,15.41,0,0,1-.794,1.945,2.382,2.382,0,0,0,.453,2.723l2.342,2.382a.8.8,0,0,1,0,1.12L39.149,42.54a.794.794,0,0,1-1.12,0L35.648,40.2a2.382,2.382,0,0,0-2.692-.468A15.41,15.41,0,0,1,31,40.523a2.382,2.382,0,0,0-1.588,2.247v3.311a.794.794,0,0,1-.794.794H23.849a.794.794,0,0,1-.794-.794V42.77a2.382,2.382,0,0,0-1.588-2.247,15.8,15.8,0,0,1-1.937-.794,2.334,2.334,0,0,0-1.048-.246,2.382,2.382,0,0,0-1.675.7l-2.382,2.342a.794.794,0,0,1-1.12,0L9.931,39.149a.8.8,0,0,1,0-1.12l2.342-2.382a2.382,2.382,0,0,0,.461-2.692A15.8,15.8,0,0,1,11.94,31a2.382,2.382,0,0,0-2.247-1.588H6.382a.794.794,0,0,1-.794-.794V23.849a.794.794,0,0,1,.794-.794H9.693a2.382,2.382,0,0,0,2.247-1.588,15.412,15.412,0,0,1,.794-1.945,2.382,2.382,0,0,0-.453-2.723L9.939,14.417a.8.8,0,0,1,0-1.12l3.374-3.374a.794.794,0,0,1,1.12,0l2.382,2.342a2.382,2.382,0,0,0,2.723.453,15.411,15.411,0,0,1,1.929-.778,2.382,2.382,0,0,0,1.588-2.247V6.382a.794.794,0,0,1,.794-.794h4.764a.794.794,0,0,1,.794.794V9.693A2.382,2.382,0,0,0,31,11.94a15.8,15.8,0,0,1,1.937.794,2.382,2.382,0,0,0,2.723-.453l2.382-2.342a.794.794,0,0,1,1.12,0l3.374,3.374a.8.8,0,0,1,0,1.12l-2.342,2.382a2.382,2.382,0,0,0-.461,2.692,15.8,15.8,0,0,1,.794,1.961,2.382,2.382,0,0,0,2.247,1.588h3.311a.794.794,0,0,1,.794.794Z" transform="translate(-4 -4)" fill="#fd815e"/>
</svg>
