<svg id="money_Insurance" data-name="money Insurance" xmlns="http://www.w3.org/2000/svg" width="44.444" height="44.139" viewBox="0 0 44.444 44.139">
  <path id="Path_4385" data-name="Path 4385" d="M36.455,48.681H11.446A4.447,4.447,0,0,1,7,44.777a3.557,3.557,0,0,1,0-.543V26.447a4.447,4.447,0,0,1,3.762-4.393A4.358,4.358,0,0,1,11.446,22h33.8a4.447,4.447,0,0,1,3.131,1.281,4.634,4.634,0,0,1,1.165,2.01,4.58,4.58,0,0,1,.151,1.156v7.115a.886.886,0,0,1-1.129.854l-5.985-1.743-7.115,2.019v6.964a10.183,10.183,0,0,0,1.725,5.594.932.932,0,0,1-.729,1.432Zm-25.009-24.9a3.176,3.176,0,0,0-.418,0,2.668,2.668,0,0,0-2.25,2.668V44.554A2.668,2.668,0,0,0,11.446,46.9H34.9a11.473,11.473,0,0,1-1.076-3.424A10.779,10.779,0,0,1,33.68,41.7V34.06a.889.889,0,0,1,.649-.889l8-2.277a.889.889,0,0,1,.48,0l5.1,1.485V26.447a3.086,3.086,0,0,0-.089-.694,2.882,2.882,0,0,0-.694-1.2,2.668,2.668,0,0,0-1.885-.774Z" transform="translate(-6.988 -8.999)" fill="#a16df6"/>
  <path id="Path_4386" data-name="Path 4386" d="M35.257,44.787H16.447a.889.889,0,0,1-.889-.889,2.668,2.668,0,0,0-2.668-2.668A.889.889,0,0,1,12,40.341V31.447a.889.889,0,0,1,.889-.889,2.668,2.668,0,0,0,2.668-2.668A.889.889,0,0,1,16.447,27h24.9a.889.889,0,0,1,.889.889,2.668,2.668,0,0,0,2.668,2.668.889.889,0,0,1,.889.889v1.4a.886.886,0,0,1-1.129.854l-1.539-.471-7.115,2.019v6.964a9.463,9.463,0,0,0,.125,1.512.946.946,0,0,1-.88,1.067Zm-18.01-1.779H34.234v-8.4a.889.889,0,0,1,.649-.889l7.577-2.161a4.447,4.447,0,0,1-1.912-2.784h-23.3a4.447,4.447,0,0,1-3.469,3.469V39.54A4.447,4.447,0,0,1,17.247,43.009Z" transform="translate(-7.543 -9.552)" fill="#a16df6"/>
  <path id="Path_4387" data-name="Path 4387" d="M30.226,42.451a6.226,6.226,0,1,1,6.226-6.226,6.226,6.226,0,0,1-6.226,6.226Zm0-10.672a4.447,4.447,0,1,0,4.447,4.447,4.447,4.447,0,0,0-4.447-4.447Z" transform="translate(-8.87 -9.884)" fill="#a16df6"/>
  <path id="Path_4388" data-name="Path 4388" d="M36.455,48.681H11.446A4.447,4.447,0,0,1,7,44.777a3.557,3.557,0,0,1,0-.543V26.447a4.447,4.447,0,0,1,3.762-4.393A4.358,4.358,0,0,1,11.446,22h33.8a4.447,4.447,0,0,1,3.131,1.281,4.634,4.634,0,0,1,1.165,2.01,4.58,4.58,0,0,1,.151,1.156v7.115a.886.886,0,0,1-1.129.854l-5.985-1.743-7.115,2.019v6.964a10.183,10.183,0,0,0,1.725,5.594.932.932,0,0,1-.729,1.432Zm-25.009-24.9a3.176,3.176,0,0,0-.418,0,2.668,2.668,0,0,0-2.25,2.668V44.554A2.668,2.668,0,0,0,11.446,46.9H34.9a11.473,11.473,0,0,1-1.076-3.424A10.779,10.779,0,0,1,33.68,41.7V34.06a.889.889,0,0,1,.649-.889l8-2.277a.889.889,0,0,1,.48,0l5.1,1.485V26.447a3.086,3.086,0,0,0-.089-.694,2.882,2.882,0,0,0-.694-1.2,2.668,2.668,0,0,0-1.885-.774Z" transform="translate(-6.988 -8.999)" fill="#a16df6"/>
  <path id="Path_4389" data-name="Path 4389" d="M35.257,44.787H16.447a.889.889,0,0,1-.889-.889,2.668,2.668,0,0,0-2.668-2.668A.889.889,0,0,1,12,40.341V31.447a.889.889,0,0,1,.889-.889,2.668,2.668,0,0,0,2.668-2.668A.889.889,0,0,1,16.447,27h24.9a.889.889,0,0,1,.889.889,2.668,2.668,0,0,0,2.668,2.668.889.889,0,0,1,.889.889v1.4a.886.886,0,0,1-1.129.854l-1.539-.471-7.115,2.019v6.964a9.463,9.463,0,0,0,.125,1.512.946.946,0,0,1-.88,1.067Zm-18.01-1.779H34.234v-8.4a.889.889,0,0,1,.649-.889l7.577-2.161a4.447,4.447,0,0,1-1.912-2.784h-23.3a4.447,4.447,0,0,1-3.469,3.469V39.54A4.447,4.447,0,0,1,17.247,43.009Z" transform="translate(-7.543 -9.552)" fill="#a16df6"/>
  <path id="Path_4390" data-name="Path 4390" d="M29.1,39.949a6.226,6.226,0,1,1,6.226-6.226A6.226,6.226,0,0,1,29.1,39.949Zm0-10.672a4.447,4.447,0,1,0,4.447,4.447A4.447,4.447,0,0,0,29.1,29.276Zm19.255-6.083a.934.934,0,0,1-.623-.249,2.668,2.668,0,0,0-1.885-.783h-3.22a.889.889,0,0,1-.774-.445L39.3,17.27A4.477,4.477,0,0,1,34.556,16L24.079,22.046a.943.943,0,0,1-.445.116H14.74a.889.889,0,0,1-.445-1.654l.213-.125L35.988,7.976a4.447,4.447,0,0,1,6.074,1.636l7.115,12.247a.884.884,0,0,1-.818,1.334Zm-5.212-2.81H46.2L40.514,10.5a2.668,2.668,0,0,0-3.638-.978L18.058,20.383h5.336L34.36,14.05a.934.934,0,0,1,.676-.089.889.889,0,0,1,.543.418,2.659,2.659,0,0,0,3.638.978.889.889,0,0,1,1.218.329Z" transform="translate(-7.749 -7.382)" fill="#a16df6"/>
  <path id="Path_4391" data-name="Path 4391" d="M43.732,22.977h-19a.89.89,0,0,1-.471-1.663l11.17-6.448a.934.934,0,0,1,.676-.089.889.889,0,0,1,.543.418,2.659,2.659,0,0,0,3.638.978.889.889,0,0,1,1.218.329l2.97,5.141a.89.89,0,0,1-.747,1.334ZM28.053,21.2H42.194l-1.779-3.113a4.376,4.376,0,0,1-2.552.071,4.447,4.447,0,0,1-2.179-1.343ZM44.435,52.326a.747.747,0,0,1-.24,0,11.713,11.713,0,0,1-4.207-2.179c-.276-.222-.534-.436-.783-.676a11.659,11.659,0,0,1-1.45-1.672,2.543,2.543,0,0,1-.231-.338,11.393,11.393,0,0,1-1.877-4.785,10.779,10.779,0,0,1-.142-1.779v-7.64a.889.889,0,0,1,.649-.889l8-2.277a.889.889,0,0,1,.48,0l8,2.277a.889.889,0,0,1,.649.889v7.631a11.909,11.909,0,0,1-8.618,11.437A.747.747,0,0,1,44.435,52.326Zm-7.115-18.4v6.964a10.183,10.183,0,0,0,1.725,5.594l.053.089.125.178a9.988,9.988,0,0,0,1.254,1.441c.222.222.445.391.658.569a10.005,10.005,0,0,0,3.3,1.788,10.139,10.139,0,0,0,7.115-9.623v-7L44.435,31.87Z" transform="translate(-8.85 -8.197)" fill="#a16df6"/>
  <path id="Path_4392" data-name="Path 4392" d="M45.612,47.225a.889.889,0,0,1-.631-.258l-2.223-2.223a.893.893,0,0,1,1.263-1.263l1.592,1.6,3.815-3.824a.893.893,0,1,1,1.263,1.263l-4.447,4.447A.889.889,0,0,1,45.612,47.225Z" transform="translate(-10.917 -11.101)" fill="#a16df6"/>
</svg>
