<svg id="Layer_2" data-name="Layer 2" xmlns="http://www.w3.org/2000/svg" width="38.951" height="38.914" viewBox="0 0 38.951 38.914">
  <path id="Path_4383" data-name="Path 4383" d="M6,22.443V31.2a9.737,9.737,0,0,0,5,8.515l1.493.833v3.322a1.082,1.082,0,0,0,1.082,1.082h8.655a1.082,1.082,0,0,0,1.082-1.082v-8.1c0-2.9-.238-3.971-1.807-5.55l-2.672-2.683a3.917,3.917,0,0,0-4.9-.368l-1.082-5.41A3.451,3.451,0,0,0,6,22.443Zm4.728-.216,1.634,8.136v.379a3.083,3.083,0,0,0,0,.314,1.578,1.578,0,0,0,.13.422l.087.26a3.7,3.7,0,0,0,.249.454,1.4,1.4,0,0,0,.1.173,3.7,3.7,0,0,0,.454.563h0l2.586,2.586A1.086,1.086,0,0,0,17.5,33.976L14.915,31.39a1.623,1.623,0,0,1,0-2.294,1.655,1.655,0,0,1,2.294,0l2.672,2.683c.985.985,1.179,1.4,1.179,4.014v6.989H14.656V39.905a1.082,1.082,0,0,0-.552-.941l-2.045-1.082A7.574,7.574,0,0,1,8.164,31.2V22.443a1.3,1.3,0,0,1,2.564-.216Zm30.759-3.246A3.441,3.441,0,0,0,38.1,21.761l-1.082,5.41a3.906,3.906,0,0,0-4.9.368l-2.672,2.683c-1.569,1.569-1.807,2.64-1.807,5.54v8.1a1.082,1.082,0,0,0,1.082,1.082h8.655a1.082,1.082,0,0,0,1.082-1.082V40.544l1.493-.833a9.737,9.737,0,0,0,5-8.515V22.443A3.473,3.473,0,0,0,41.488,18.981Zm1.3,12.215a7.574,7.574,0,0,1-3.895,6.632L36.846,38.91a1.082,1.082,0,0,0-.552.941v2.932H29.8V35.761c0-2.618.195-3.029,1.179-4.014l2.672-2.683a1.655,1.655,0,0,1,2.294,0,1.623,1.623,0,0,1,0,2.294l-2.586,2.586A1.086,1.086,0,0,0,34.9,35.48l2.586-2.586a4.686,4.686,0,0,0,.454-.563,1.881,1.881,0,0,0,.108-.206,3.172,3.172,0,0,0,.227-.422,2.7,2.7,0,0,0,.1-.27,2.267,2.267,0,0,1,.119-.422,2.943,2.943,0,0,0,0-.325v-.346l1.731-8.115a1.3,1.3,0,0,1,2.564.216ZM24.718,29.486a1.082,1.082,0,0,0,1.515,0l11.144-11a7.271,7.271,0,0,0,0-10.322,7.455,7.455,0,0,0-10.43,0L25.475,9.578,24,8.161a7.455,7.455,0,0,0-10.43,0,7.271,7.271,0,0,0,0,10.354ZM15.1,9.676a5.269,5.269,0,0,1,7.39,0l2.229,2.164a1.082,1.082,0,0,0,1.515,0l2.229-2.164a5.28,5.28,0,0,1,7.39,0,5.085,5.085,0,0,1,0,7.26L25.475,27.192,15.1,16.936a5.085,5.085,0,0,1,0-7.26Z" transform="translate(-5.999 -6.033)" fill="#6a5ecb"/>
  <path id="Path_4384" data-name="Path 4384" d="M21.082,18.41h2.164v2.164a1.082,1.082,0,0,0,2.164,0V18.41h2.164a1.082,1.082,0,1,0,0-2.164H25.41V14.082a1.082,1.082,0,1,0-2.164,0v2.164H21.082a1.082,1.082,0,0,0,0,2.164Z" transform="translate(-4.852 -5.463)" fill="#6a5ecb"/>
</svg>
