<svg xmlns="http://www.w3.org/2000/svg" width="47.639" height="47.238" viewBox="0 0 47.639 47.238">
  <path id="help-support" d="M23.643,45.9a.7.7,0,1,0,.7.7.7.7,0,0,0-.7-.7Zm1.517-7.369a2.245,2.245,0,0,0-2.633.029A2.208,2.208,0,0,0,21.669,41a.7.7,0,1,0,1.339-.4.821.821,0,0,1,.331-.913.859.859,0,0,1,1.014-.023.781.781,0,0,1,.22.991,2.633,2.633,0,0,1-.59.546,3.93,3.93,0,0,0-.852.809,2.9,2.9,0,0,0-.246,2.818.7.7,0,0,0,.635.406.689.689,0,0,0,.291-.064.7.7,0,0,0,.341-.93,1.5,1.5,0,0,1,.111-1.418,2.834,2.834,0,0,1,.568-.516,3.8,3.8,0,0,0,.9-.876A2.158,2.158,0,0,0,25.159,38.532ZM46.941,28.38H33.226V26.457H37.64a2.1,2.1,0,0,0,2.093-2.093V15.74a2.1,2.1,0,0,0-2.093-2.093H24.626a2.1,2.1,0,0,0-2.093,2.093v3.728l-3.2-.973a1.125,1.125,0,0,1-.8-1.077V17a4.581,4.581,0,0,0,1.5-3.392v-1.57l.587-2.494a3.8,3.8,0,0,0-.542-3.005A3.86,3.86,0,0,0,17.516,4.88c-.471-.078-.944-.166-1.409-.26L15.8,4.56a9.065,9.065,0,0,0-1.876-.25h-.072a3.788,3.788,0,0,0-2.977,1.439,3.831,3.831,0,0,0-.733,3.277l.713,3.028v1.557a4.579,4.579,0,0,0,1.451,3.35v.475a1.126,1.126,0,0,1-.8,1.077l-1.937.59-.019.006-1.773.542A4.322,4.322,0,0,0,4.7,23.8V28.38H.7a.7.7,0,0,0-.7.7v4.187a.7.7,0,0,0,.7.7H3.489V50.85a.7.7,0,0,0,1.4,0V33.962H42.754V50.85a.7.7,0,0,0,1.4,0V33.962h2.791a.7.7,0,0,0,.7-.7V29.077a.7.7,0,0,0-.7-.7ZM23.928,15.74a.7.7,0,0,1,.7-.7H37.64a.7.7,0,0,1,.7.7v8.623a.7.7,0,0,1-.7.7H33.226V22.1a.7.7,0,0,0-.7-.7H29.737a.7.7,0,0,0-.7.7v2.963H24.626a.7.7,0,0,1-.7-.7Zm7.9,7.056V28.38h-1.4V22.8Zm-2.791,3.66V28.38H26.192V26.457Zm-6.507-5.53v3.436a2.1,2.1,0,0,0,2.093,2.093h.17V28.38h-3.07v-2.5a.7.7,0,1,0-1.4,0v2.5H16.143V22.146l.93,1.054a.7.7,0,0,0,.977.07l3.2-2.731ZM15.414,19.5l-1.9-1.139a2.565,2.565,0,0,0,.144-.518,4.588,4.588,0,0,0,3.521.018,2.492,2.492,0,0,0,.14.491Zm3.516.328.737.225-2,1.706-1.142-1.3,1.667-1a2.524,2.524,0,0,0,.74.368ZM11.74,9.747,11.5,8.708a2.439,2.439,0,0,1,.47-2.093A2.4,2.4,0,0,1,13.851,5.7h.056a7.794,7.794,0,0,1,1.61.221l.316.064c.479.093.969.186,1.455.269a2.446,2.446,0,0,1,1.98,2.972l-.119.506a2.4,2.4,0,0,0-1.256-.39,1.616,1.616,0,0,1-.9-.267,2.332,2.332,0,0,0-3.08.186,1.248,1.248,0,0,1-.813.165A2.366,2.366,0,0,0,11.74,9.747Zm.507,3.864V12.02a1.385,1.385,0,0,1,.223-1.076c.114-.1.279-.114.64-.114a2.512,2.512,0,0,0,1.65-.447,1.553,1.553,0,0,1,.863-.412.914.914,0,0,1,.545.229,2.937,2.937,0,0,0,1.591.535c.372.036.513.06.639.186a1.543,1.543,0,0,1,.248,1.107v1.585a3.2,3.2,0,1,1-6.4,0Zm-.335,6.234a2.533,2.533,0,0,0,.744-.372l1.649.989-1.15,1.3-1.978-1.693ZM6.094,23.8A2.936,2.936,0,0,1,8.188,20.98L9.6,20.55l3.177,2.718a.7.7,0,0,0,.976-.068l1-1.133V28.38H10.564v-2.5a.7.7,0,0,0-1.4,0v2.5H6.1Zm40.149,8.765H1.4V29.775H46.243Zm-22.424,3.4a6.746,6.746,0,1,0,6.746,6.746,6.746,6.746,0,0,0-6.746-6.746Zm0,12.1a5.35,5.35,0,1,1,5.35-5.35,5.35,5.35,0,0,1-5.35,5.35Z" transform="translate(0 -4.31)" fill="#f4a62f"/>
</svg>
