<svg xmlns="http://www.w3.org/2000/svg" xmlns:xlink="http://www.w3.org/1999/xlink" width="48" height="48" viewBox="0 0 48 48">
  <defs>
    <filter id="Ellipse_582" x="0" y="0" width="48" height="48" filterUnits="userSpaceOnUse">
      <feOffset dy="3" input="SourceAlpha"/>
      <feGaussianBlur stdDeviation="3" result="blur"/>
      <feFlood flood-opacity="0.161"/>
      <feComposite operator="in" in2="blur"/>
      <feComposite in="SourceGraphic"/>
    </filter>
  </defs>
  <g id="Group_6267" data-name="Group 6267" transform="translate(-71 -432)">
    <g transform="matrix(1, 0, 0, 1, 71, 432)" filter="url(#Ellipse_582)">
      <circle id="Ellipse_582-2" data-name="Ellipse 582" cx="15" cy="15" r="15" transform="translate(9 6)" fill="#fff"/>
    </g>
    <g id="phone_1_" data-name="phone (1)" transform="translate(87.22 445.22)">
      <g id="Group_50" data-name="Group 50" transform="translate(0 0)">
        <g id="Group_49" data-name="Group 49" transform="translate(0 0)">
          <path id="Path_55" data-name="Path 55" d="M15.259,12.374l-1.725-1.15L12,10.2a.679.679,0,0,0-.912.148l-.949,1.22a.676.676,0,0,1-.863.179A11.049,11.049,0,0,1,6.191,9.371,11.128,11.128,0,0,1,3.813,6.285a.676.676,0,0,1,.179-.863l1.22-.949a.679.679,0,0,0,.148-.912L4.37,2.075,3.188.3A.679.679,0,0,0,2.273.1L.911.914a1.665,1.665,0,0,0-.756.978C-.218,3.251-.293,6.249,4.51,11.052s7.8,4.728,9.159,4.355a1.665,1.665,0,0,0,.978-.756l.818-1.363A.679.679,0,0,0,15.259,12.374Z" transform="translate(0 0)" fill="#9398a1"/>
          <path id="Path_56" data-name="Path 56" d="M282.75,62.329a4.566,4.566,0,0,1,4.561,4.561.268.268,0,0,0,.537,0,5.1,5.1,0,0,0-5.1-5.1.268.268,0,0,0,0,.537Z" transform="translate(-273.896 -59.914)" fill="#9398a1"/>
          <path id="Path_57" data-name="Path 57" d="M282.749,115.293a2.955,2.955,0,0,1,2.951,2.951.268.268,0,0,0,.537,0,3.492,3.492,0,0,0-3.488-3.488.268.268,0,0,0,0,.537Z" transform="translate(-273.896 -111.268)" fill="#9398a1"/>
          <path id="Path_58" data-name="Path 58" d="M282.75,168.26a1.343,1.343,0,0,1,1.342,1.341.268.268,0,1,0,.537,0,1.88,1.88,0,0,0-1.878-1.878.268.268,0,0,0,0,.537Z" transform="translate(-273.896 -162.625)" fill="#9398a1"/>
        </g>
      </g>
    </g>
  </g>
</svg>
