<svg xmlns="http://www.w3.org/2000/svg" width="46.538" height="46.538" viewBox="0 0 46.538 46.538">
  <g id="shopping-bag" transform="translate(-3.25 -3.25)">
    <path id="Path_4408" data-name="Path 4408" d="M20.09,31.693,21.626,14H48.971l3.217,37H42.537m3.217-37,1.608,37" transform="translate(-3.15 -1.958)" fill="none" stroke="#21d8ca" stroke-linejoin="round" stroke-width="1.5"/>
    <path id="Path_4409" data-name="Path 4409" d="M30,16.868V7.217A3.217,3.217,0,0,1,33.217,4h4.825a3.217,3.217,0,0,1,3.217,3.217v9.651" transform="translate(-5.09)" fill="none" stroke="#21d8ca" stroke-linecap="square" stroke-linejoin="round" stroke-width="1.5"/>
    <path id="Path_4410" data-name="Path 4410" d="M34,12.825V11.217A3.217,3.217,0,0,1,37.217,8h4.825a3.217,3.217,0,0,1,3.217,3.217v1.608" transform="translate(-5.873 -0.783)" fill="none" stroke="#21d8ca" stroke-linecap="square" stroke-linejoin="round" stroke-width="1.5"/>
    <circle id="Ellipse_571" data-name="Ellipse 571" cx="1.872" cy="1.872" r="1.872" transform="translate(22.721 16.481)" fill="none" stroke="#21d8ca" stroke-linecap="square" stroke-linejoin="round" stroke-width="1.5"/>
    <circle id="Ellipse_572" data-name="Ellipse 572" cx="1.872" cy="1.872" r="1.872" transform="translate(33.954 16.481)" fill="none" stroke="#21d8ca" stroke-linecap="square" stroke-linejoin="round" stroke-width="1.5"/>
    <path id="Path_4411" data-name="Path 4411" d="M4,55.3,7.217,36H36.17l3.217,19.3Z" transform="translate(0 -6.264)" fill="none" stroke="#21d8ca" stroke-linecap="square" stroke-linejoin="round" stroke-width="1.5"/>
    <path id="Path_4412" data-name="Path 4412" d="M16,44v2.413a4.021,4.021,0,0,0,4.021,4.021h3.217a4.021,4.021,0,0,0,4.021-4.021V44" transform="translate(-2.349 -7.83)" fill="none" stroke="#21d8ca" stroke-linecap="square" stroke-linejoin="round" stroke-width="1.5"/>
    <path id="Path_4413" data-name="Path 4413" d="M38,36l1.608,19.3" transform="translate(-6.656 -6.264)" fill="none" stroke="#21d8ca" stroke-linejoin="round" stroke-width="1.5"/>
    <circle id="Ellipse_573" data-name="Ellipse 573" cx="1.872" cy="1.872" r="1.872" transform="translate(22.721 32.706)" fill="none" stroke="#21d8ca" stroke-linecap="square" stroke-linejoin="round" stroke-width="1.5"/>
    <circle id="Ellipse_574" data-name="Ellipse 574" cx="1.872" cy="1.872" r="1.872" transform="translate(11.488 32.706)" fill="none" stroke="#21d8ca" stroke-linecap="square" stroke-linejoin="round" stroke-width="1.5"/>
  </g>
</svg>
