<svg id="technology" xmlns="http://www.w3.org/2000/svg" width="47.639" height="47.644" viewBox="0 0 47.639 47.644">
  <path id="Path_4370" data-name="Path 4370" d="M22.543,27.4l2.009.67.066.159-.947,1.894a.793.793,0,0,0,.148.916l1.01,1.01a.793.793,0,0,0,.916.148l1.895-.948.159.066.67,2.009a.793.793,0,0,0,.752.544h1.428a.794.794,0,0,0,.753-.543l.67-2.009.159-.066,1.894.951a.793.793,0,0,0,.916-.148l1.01-1.01a.793.793,0,0,0,.152-.92l-.952-1.895.066-.159,2.009-.67a.793.793,0,0,0,.544-.752V25.221a.794.794,0,0,0-.543-.753l-2.009-.67-.066-.159.951-1.894a.793.793,0,0,0-.148-.916l-1.01-1.01a.793.793,0,0,0-.916-.148l-1.9.948-.159-.066-.67-2.009A.793.793,0,0,0,30.649,18H29.221a.794.794,0,0,0-.753.543l-.67,2.009-.159.066-1.894-.947a.793.793,0,0,0-.916.148l-1.01,1.01a.793.793,0,0,0-.148.916l.948,1.895q-.034.079-.066.159l-2.009.67a.793.793,0,0,0-.544.752v1.428a.794.794,0,0,0,.543.753Zm1.044-1.609,1.832-.611a.794.794,0,0,0,.505-.514A4.206,4.206,0,0,1,26.2,24a.793.793,0,0,0,.006-.721l-.866-1.73.2-.2,1.73.866A.793.793,0,0,0,28,22.2a4.205,4.205,0,0,1,.67-.28.793.793,0,0,0,.514-.505l.611-1.832h.284l.611,1.832a.793.793,0,0,0,.514.505,4.205,4.205,0,0,1,.67.28.793.793,0,0,0,.721.006l1.73-.866.2.2-.866,1.73a.793.793,0,0,0,.006.721,4.205,4.205,0,0,1,.28.67.793.793,0,0,0,.505.514l1.832.611v.284l-1.832.611a.793.793,0,0,0-.505.514,4.206,4.206,0,0,1-.28.67.794.794,0,0,0-.006.721l.866,1.73-.2.2-1.73-.866a.793.793,0,0,0-.721.006,4.206,4.206,0,0,1-.67.28.793.793,0,0,0-.514.505l-.611,1.832h-.284l-.611-1.832a.793.793,0,0,0-.514-.505,4.206,4.206,0,0,1-.67-.28.793.793,0,0,0-.721-.006l-1.73.866-.2-.2.866-1.73a.793.793,0,0,0-.006-.721,4.206,4.206,0,0,1-.28-.67.794.794,0,0,0-.505-.514l-1.832-.611Z" transform="translate(-6.101 -5.311)" fill="#a26ef6"/>
  <path id="Path_4371" data-name="Path 4371" d="M30.991,26.576A3.174,3.174,0,1,0,27.817,23.4,3.174,3.174,0,0,0,30.991,26.576Zm0-4.761A1.587,1.587,0,1,1,29.4,23.4,1.587,1.587,0,0,1,30.991,21.815ZM29.337,9.335l1.088,1.155a.849.849,0,0,1,1.133,0l1.088-1.155a2.446,2.446,0,0,0-3.309,0Zm5.531-2.091a5.735,5.735,0,0,0-7.754,0L28.2,8.4a4.126,4.126,0,0,1,5.578,0Z" transform="translate(-7.157 -2.778)" fill="#a26ef6"/>
  <path id="Path_4372" data-name="Path 4372" d="M31.9,4.382a9.023,9.023,0,0,0-12.2,0l1.089,1.155a7.412,7.412,0,0,1,10.02,0ZM49.6,11.524a3.174,3.174,0,1,0-4.047,3.036L44.127,26.724a2.374,2.374,0,0,0-1.52,1.463H40.874V14.507a2.987,2.987,0,0,0-2.983-2.983H13.7a2.987,2.987,0,0,0-2.983,2.983V28.187H8.988a2.38,2.38,0,0,0-1.514-1.464L6.039,14.56a3.16,3.16,0,1,0-1.592.049L5.881,26.771a2.373,2.373,0,0,0,0,4.42L4.452,43.352a3.189,3.189,0,1,0,1.592.049L7.472,31.237a2.374,2.374,0,0,0,1.516-1.463h1.733v.985a2.964,2.964,0,0,0,.817,2.038c0,.022-.016.04-.019.063L9.932,47.144a.793.793,0,0,0,.789.881H40.874a.793.793,0,0,0,.789-.881L40.075,32.861c0-.023-.015-.041-.019-.063a2.964,2.964,0,0,0,.817-2.038v-.985h1.733a2.374,2.374,0,0,0,1.514,1.463L45.549,43.4a3.16,3.16,0,1,0,1.592-.049L45.714,31.191a2.373,2.373,0,0,0,0-4.42l1.428-12.162A3.174,3.174,0,0,0,49.6,11.524Zm-46.023,0a1.587,1.587,0,1,1,1.587,1.587A1.587,1.587,0,0,1,3.579,11.524ZM6.753,46.438a1.587,1.587,0,1,1-1.587-1.587A1.587,1.587,0,0,1,6.753,46.438Zm0-16.663a.793.793,0,1,1,.793-.793A.793.793,0,0,1,6.753,29.774Zm5.554-15.268a1.4,1.4,0,0,1,1.4-1.4H37.891a1.4,1.4,0,0,1,1.4,1.4V30.759a1.4,1.4,0,0,1-1.4,1.4H13.7a1.4,1.4,0,0,1-1.4-1.4ZM23.417,46.438V44.851h4.761v1.587Zm6.348,0v-2.38a.793.793,0,0,0-.793-.793H22.623a.793.793,0,0,0-.793.793v2.38H11.607l1.415-12.7H38.58l1.411,12.7ZM44.841,11.524a1.587,1.587,0,1,1,1.587,1.587A1.587,1.587,0,0,1,44.841,11.524Zm0,16.663a.793.793,0,1,1-.793.793A.793.793,0,0,1,44.841,28.187Zm3.174,18.25a1.587,1.587,0,1,1-1.587-1.587A1.587,1.587,0,0,1,48.015,46.438Z" transform="translate(-1.964 -2.009)" fill="#a26ef6"/>
</svg>
