<svg xmlns="http://www.w3.org/2000/svg" width="30.424" height="45.636" viewBox="0 0 30.424 45.636">
  <g id="signal-tower" transform="translate(-12 -2)">
    <path id="Path_4414" data-name="Path 4414" d="M48.711,3.181A.76.76,0,0,0,48.34,4.19a13.591,13.591,0,0,1,0,11.363.76.76,0,1,0,1.38.639,15.1,15.1,0,0,0,0-12.641.759.759,0,0,0-1.009-.371Z" transform="translate(-8.683 -0.266)" fill="#2ad974"/>
    <path id="Path_4415" data-name="Path 4415" d="M37.065,13.927a.761.761,0,1,0,1.408.576,12.273,12.273,0,0,0,0-9.262.761.761,0,1,0-1.408.576A10.74,10.74,0,0,1,37.065,13.927ZM14.078,16.633a.765.765,0,0,0,.689-1.08,13.58,13.58,0,0,1,0-11.363.76.76,0,0,0-1.38-.639,15.1,15.1,0,0,0,0,12.641A.76.76,0,0,0,14.078,16.633Z" transform="translate(0 -0.266)" fill="#2ad974"/>
    <path id="Path_4416" data-name="Path 4416" d="M17.613,15.5a.765.765,0,0,0,.7-1.049,10.732,10.732,0,0,1,0-8.11.761.761,0,1,0-1.408-.576,12.273,12.273,0,0,0,0,9.262A.761.761,0,0,0,17.613,15.5ZM28.17,9.633a.76.76,0,0,0,.761-.761V6.59a.761.761,0,1,0-1.521,0V8.872a.76.76,0,0,0,.761.761Zm-1.521,0H24.367a.761.761,0,1,0,0,1.521h2.282a.761.761,0,1,0,0-1.521ZM28.931,14.2V11.915a.761.761,0,1,0-1.521,0V14.2a.761.761,0,1,0,1.521,0Zm.761-3.042h2.282a.761.761,0,1,0,0-1.521H29.691a.761.761,0,1,0,0,1.521Z" transform="translate(-0.958 -0.787)" fill="#2ad974"/>
    <path id="Path_4417" data-name="Path 4417" d="M38.676,40.087,30.789,16.434a7.6,7.6,0,1,0-6.657,0L16.245,40.087a3.8,3.8,0,0,0,.567,7.549h21.3a3.8,3.8,0,0,0,.567-7.549Zm-1.622-.057H29.865l6.47-2.157Zm-1.428-4.282-13.1-5.613,9.8-4.286Zm-4.2-12.605-6.634-3.872.77-2.31a7.439,7.439,0,0,0,3.8,0ZM21.376,9.606a6.085,6.085,0,1,1,6.085,6.085A6.092,6.092,0,0,1,21.376,9.606ZM24.3,20.745l6.811,3.976-9.527,4.168ZM20.855,31.072,34.45,36.9,25.056,40.03H17.868ZM38.109,46.115h-21.3a2.282,2.282,0,1,1,0-4.564h21.3a2.282,2.282,0,1,1,0,4.564Z" transform="translate(-0.249)" fill="#2ad974"/>
  </g>
</svg>
