<svg xmlns="http://www.w3.org/2000/svg" width="54.499" height="36.67" viewBox="0 0 54.499 36.67">
  <g id="airplane" transform="translate(-20.001 -56.288)">
    <path id="Path_4398" data-name="Path 4398" d="M116.96,74.526a.851.851,0,1,0-1.18,1.228l.2.2a.852.852,0,1,0,1.18-1.227Z" transform="translate(-54.849 -10.336)" fill="#90dd15"/>
    <path id="Path_4399" data-name="Path 4399" d="M111.2,77.294a.852.852,0,0,0-1.179,1.229l.2.2A.852.852,0,1,0,111.4,77.49Z" transform="translate(-51.541 -11.926)" fill="#90dd15"/>
    <path id="Path_4400" data-name="Path 4400" d="M105.42,80.044a.852.852,0,1,0-1.18,1.227l.2.2a.852.852,0,1,0,1.18-1.227Z" transform="translate(-48.213 -13.496)" fill="#90dd15"/>
    <path id="Path_4405" data-name="Path 4405" d="M47.954,92.909l5.457-2.24a1.678,1.678,0,0,0,.88-1.2L57.4,72.8l12.149-7.325c3.176-2,4.743-3.7,4.928-5.344a3.179,3.179,0,0,0-1.093-2.677,4.261,4.261,0,0,0-1.618-.944c-1.407-.349-4.419-.583-8.805,1.781,0,0-11.072,6.565-11.082,6.559l-12.1-5.962a1.7,1.7,0,0,0-1.4-.028l-3.726,1.3c-.026.009-.052.02-.077.032a1.719,1.719,0,0,0-.258,2.945l8.456,7.13-8.186,4.854a.779.779,0,0,0-.1-.058l-8.972-4.219a1.733,1.733,0,0,0-1.594-.092l-2.883,1.365a1.7,1.7,0,0,0-.409,2.877l10.606,8.269a3.042,3.042,0,0,0,3.41.367l12-5.823-.334,13.39C46.514,91.72,45.9,93.25,47.954,92.909ZM35.38,61.8a.924.924,0,0,0-.086-.064l3.677-1.281a.733.733,0,0,0,.066-.036l11.108,5.471-5.82,3.451Zm-1.5,20.3-.037.02a1.348,1.348,0,0,1-1.532-.181L21.718,73.682l2.9-1.383a.018.018,0,0,1,.018,0,.886.886,0,0,0,.1.058l8.972,4.218a1.731,1.731,0,0,0,1.741.017L63.8,59.771c4-2.153,6.617-1.842,7.557-1.609a2.743,2.743,0,0,1,.823.5,1.564,1.564,0,0,1,.6,1.282c-.083.731-.868,2.034-4.128,4.084L56.2,71.536a.851.851,0,0,0-.4.573L52.6,89.164l-4.448,1.96a.882.882,0,0,0-.125.068c-.009.006-.024.017-.075-.022l.434-14.723a.852.852,0,0,0-1.223-.791Z" transform="translate(0)" fill="#90dd15"/>
  </g>
</svg>
