<svg xmlns="http://www.w3.org/2000/svg" width="832.627" height="144.499" viewBox="0 0 832.627 144.499">
  <g id="Group_5956" data-name="Group 5956" transform="translate(-391.774 -438.129)">
    <path id="Path_4369" data-name="Path 4369" d="M8.774-107.526v-8.032H20.14v-17.277h8.941v17.277H50.6v8.032H29.233v45.01q0,12.882,11.366,12.882A14.6,14.6,0,0,0,50.9-53.574l4.395,6.82Q49.238-41.3,39.842-41.3q-9.548,0-14.625-5.3T20.14-62.061v-45.465Zm74.26,21.672v42.889H73.941v-72.592h9.093v10q6.214-11.669,18.489-11.669,6.971,0,10.76,2.879l-3.789,8.335a15.835,15.835,0,0,0-9.245-2.728,13.763,13.763,0,0,0-11.9,6.138Q83.034-96.463,83.034-85.854Zm55.316-29.7V-74.64q0,10.912,5.91,17.58t15.761,6.668q9.851,0,15.913-6.668T182-74.64v-40.919h8.941V-73.73q0,14.4-8.487,23.036t-22.429,8.638q-13.791,0-22.2-8.638T129.408-73.73v-41.828ZM251.1-41.3q-16.216,0-26.749-10.987T213.821-79.338q0-15.913,10.078-26.9a32.809,32.809,0,0,1,25.233-10.987,32.66,32.66,0,0,1,24.854,10.684,36.446,36.446,0,0,1,10,25.839,23.022,23.022,0,0,1-.3,3.789H222.914a29.392,29.392,0,0,0,8.714,19.7,26.984,26.984,0,0,0,19.777,7.881q13.791,0,22.429-8.638l4.85,6.214Q268.682-41.3,251.1-41.3Zm-1.97-68.046a24,24,0,0,0-17.731,7.35,30.135,30.135,0,0,0-8.487,18.565h51.83q-1.516-12.124-8.411-19.02A23.343,23.343,0,0,0,249.132-109.344ZM463.424-42.966V-54.332q-9.245,13.185-25.46,13.185a32.813,32.813,0,0,1-25.006-10.912Q402.8-62.97,402.8-79.338q0-16.216,10-27.127a32.679,32.679,0,0,1,25.157-10.912q16.367,0,25.46,12.73v-10.912h13.488v72.592ZM422.96-61.152a22.1,22.1,0,0,0,16.974,7.426,21.639,21.639,0,0,0,16.822-7.426,26.238,26.238,0,0,0,6.668-18.186,25.961,25.961,0,0,0-6.668-18.11,21.739,21.739,0,0,0-16.822-7.35,21.972,21.972,0,0,0-16.9,7.35,25.792,25.792,0,0,0-6.744,18.11A26.238,26.238,0,0,0,422.96-61.152Zm80.018,18.186V-147.232h13.488V-42.966Zm72.138,1.819q-16.367,0-27.2-11.063T537.078-79.338q0-15.913,10.305-26.976a33.577,33.577,0,0,1,25.612-11.063,34.085,34.085,0,0,1,25.46,10.609Q608.761-96.16,608.761-80.7a19.592,19.592,0,0,1-.455,4.85H550.717a26.032,26.032,0,0,0,7.956,16.367q6.744,6.365,16.9,6.365,12.275,0,20.308-8.032L603-51.907a32.646,32.646,0,0,1-11.972,7.8A42.638,42.638,0,0,1,575.117-41.147Zm12.427-59.1a19.813,19.813,0,0,0-14.4-5.607,20.025,20.025,0,0,0-14.625,5.91,26.727,26.727,0,0,0-7.5,15.155h43.95Q593.454-94.8,587.544-100.251Zm53.952,15v42.282H628.008v-72.592H641.5v8.941q7.123-10.76,21.823-10.76,12.882,0,20.535,8.108t7.653,21.9v44.4H678.019V-85.248q0-8.941-4.925-14.246t-13.412-5.3q-8.487,0-13.336,5.228T641.5-85.248Zm66.531-18.338v-11.972H720.15v-18.034h13.336v18.034H754.1v11.972H733.638v38.342q0,11.518,10,11.518,6.062,0,9.4-3.789l6.214,10.154q-6.214,6.214-17.428,6.214-10.305,0-16.064-6.062T720-64.789v-38.8Z" transform="translate(383 623.776)" fill="#263238"/>
    <g id="Group_5883" data-name="Group 5883" transform="translate(675.205 476)">
      <g id="Group_5882" data-name="Group 5882" transform="translate(0 0)">
        <path id="Union_3" data-name="Union 3" d="M32.576,92.063V35.409H43.907V92.063ZM0,35.409V11.331H11.331V24.078H43.907v11.33ZM0,11.331V0H90.647V11.331Z" transform="translate(0 0)" fill="#263238"/>
        <path id="Union_4" data-name="Union 4" d="M0,93.408V82.077H15.58V24.006H26.911v69.4ZM46.738,24.078v-.072H15.58V12.675H46.738V0H58.069V12.675h0V24.006h0v.072Z" transform="translate(43.907 11.403)" fill="#14bc9a"/>
      </g>
    </g>
    <path id="Path_4418" data-name="Path 4418" d="M18.645-33.674V-76.388H5.424v-7.8H40.341v7.8H27.346v42.714Zm27.8,0V-84.185h8.136l18.984,25.99H69.5L88.14-84.185h8.249v50.511h-8.7V-74.128l3.39.9L71.868-47.46H70.851L52.206-73.224l2.938-.9v40.454Z" transform="translate(1128.012 522.314)" fill="#253238"/>
  </g>
</svg>
